<svg xmlns="http://www.w3.org/2000/svg" viewBox="0 0 890.66 1276.17"><title>Title01_web</title><rect x="-248.3" y="-344.56" width="1201.92" height="1695.12" style="fill:#e6e6e6"/><path d="M439.93,460.92H482v12.89L459.55,559H445.4L467.68,474H452.54v11.5H439.93Z" style="fill:#0b637f"/><path d="M496.55,537.86V482.08c0-1.21.05-2.57.14-4.06a21.88,21.88,0,0,1,.84-4.63,23.73,23.73,0,0,1,2-4.76,15.41,15.41,0,0,1,3.72-4.35,18.39,18.39,0,0,1,6.8-3.57,27.78,27.78,0,0,1,8.05-1.19,26.49,26.49,0,0,1,8.62,1.4,19.11,19.11,0,0,1,7.64,5A16.87,16.87,0,0,1,539,474a42.82,42.82,0,0,1,.77,8.06v55.78c0,1.4-.05,2.85-.14,4.35a20.75,20.75,0,0,1-.84,4.55,17.78,17.78,0,0,1-2.11,4.49,20.6,20.6,0,0,1-3.78,4.27,19.81,19.81,0,0,1-6.94,3.79,27,27,0,0,1-7.78,1.12,24.85,24.85,0,0,1-8.4-1.26,19.79,19.79,0,0,1-5.89-3.23,16.33,16.33,0,0,1-6-8.48A36.88,36.88,0,0,1,496.55,537.86Zm29.15-2V484a31.84,31.84,0,0,0-.28-4.13,7.77,7.77,0,0,0-1.4-3.71,6.47,6.47,0,0,0-2.38-2.11,7.23,7.23,0,0,0-3.51-.84,6.8,6.8,0,0,0-5.88,2.95,7.77,7.77,0,0,0-1.4,3.71,31.84,31.84,0,0,0-.28,4.13V535.9a30.13,30.13,0,0,0,.28,4.06,8.68,8.68,0,0,0,1.4,3.79,6,6,0,0,0,3,2.45,9.92,9.92,0,0,0,2.87.49,6.61,6.61,0,0,0,5.89-2.94,9.74,9.74,0,0,0,1.4-3.86A28.59,28.59,0,0,0,525.7,535.9Z" style="fill:#0b637f"/><path d="M605.45,460.92h14v70.36c0,1.77-.05,3.64-.14,5.6a31.43,31.43,0,0,1-.84,5.89,27.45,27.45,0,0,1-2.17,5.88,20.7,20.7,0,0,1-4,5.47,18.42,18.42,0,0,1-8.9,5.26,41.38,41.38,0,0,1-9,1c-.93,0-2.1-.07-3.5-.21a21.52,21.52,0,0,1-4.62-1.05,23.78,23.78,0,0,1-5.19-2.53,23.48,23.48,0,0,1-5.19-4.62l10.8-9.11a7.71,7.71,0,0,0,4.06,3.15,14.43,14.43,0,0,0,3.78.63,13.4,13.4,0,0,0,4.56-.77,7.8,7.8,0,0,0,3.71-2.87,11.67,11.67,0,0,0,2.18-4.91,28.42,28.42,0,0,0,.49-5Z" style="fill:#0b637f"/><path d="M660.94,538H643l-4.62,21h-14l21.45-98.11h12.33L679.58,559h-14Zm-16.53-12.47h14.85l-7.57-37.28Z" style="fill:#0b637f"/><path d="M688,460.92h14v42.19h18.92V460.92h14V559h-14V515.72H702V559H688Z" style="fill:#0b637f"/><path d="M750.35,460.92h18.36c1.78,0,3.72,0,5.82.07a34.78,34.78,0,0,1,6.45.77,25.31,25.31,0,0,1,6.3,2.24,17.5,17.5,0,0,1,5.54,4.63,22.21,22.21,0,0,1,3.78,7.29,31.65,31.65,0,0,1,1.41,9.81v7.42a26.1,26.1,0,0,1-1.48,8.9,19.87,19.87,0,0,1-3.71,6.66,15.71,15.71,0,0,1-3.5,3.08,19,19,0,0,1-3.93,2L800.81,559H786.23L772.64,516.7h-8.27V559h-14Zm14,12.61v30.56h8a16.24,16.24,0,0,0,4.55-.63,9.85,9.85,0,0,0,4.14-2.6,7.79,7.79,0,0,0,2.52-4A24.28,24.28,0,0,0,784,492v-7a14.37,14.37,0,0,0-.91-5.19,10.67,10.67,0,0,0-2.31-3.78,7.21,7.21,0,0,0-4.49-2.32q-2.38-.21-4.62-.21Z" style="fill:#0b637f"/><path d="M852.94,460.92v13.31H825.33v28.88h24.39v12.61H825.33v30h28V559h-42V460.92Z" style="fill:#0b637f"/><path d="M403.4,522.9,525.72,734.77H281.07L403.4,522.9m0-44-19.06,33L262,723.77l-19,33H563.82l-19.05-33L422.45,511.9l-19.05-33Z" style="fill:#fff"/><path d="M525.72,597.1,403.4,809,281.07,597.1H525.72m38.1-22H243l19,33L384.34,820l19.06,33,19.05-33L544.77,608.1l19.05-33Z" style="fill:#fff"/><line x1="428.94" y1="232.47" x2="499.15" y2="354.07" style="fill:none;stroke:#b3b3b3;stroke-miterlimit:10;stroke-width:2px"/><line x1="407.7" y1="126.56" x2="569.18" y2="406.24" style="fill:none;stroke:#b3b3b3;stroke-miterlimit:10;stroke-width:2px"/><line x1="374.63" y1="421.39" x2="536.11" y2="701.08" style="fill:none;stroke:#e6e6e6;stroke-miterlimit:10;stroke-width:9px"/><line x1="844.23" y1="453.56" x2="1005.71" y2="733.24" style="fill:none;stroke:#e6e6e6;stroke-miterlimit:10;stroke-width:9px"/><line x1="839.33" y1="453.56" x2="1000.81" y2="733.24" style="fill:none;stroke:#b3b3b3;stroke-miterlimit:10;stroke-width:2px"/><line x1="858.97" y1="716.94" x2="1020.44" y2="996.63" style="fill:none;stroke:#e6e6e6;stroke-miterlimit:10;stroke-width:9px"/><line x1="854.07" y1="716.94" x2="1015.54" y2="996.63" style="fill:none;stroke:#b3b3b3;stroke-miterlimit:10;stroke-width:2px"/><line x1="817.08" y1="896.26" x2="978.56" y2="1175.94" style="fill:none;stroke:#e6e6e6;stroke-miterlimit:10;stroke-width:9px"/><line x1="812.18" y1="896.26" x2="973.66" y2="1175.94" style="fill:none;stroke:#b3b3b3;stroke-miterlimit:10;stroke-width:2px"/><path d="M432.07,583.92h14V682h-14Z" style="fill:#0b637f"/><path d="M493.88,611.11v-2.66a35,35,0,0,0-.35-4.21,9.54,9.54,0,0,0-2-4.76,11.72,11.72,0,0,0-2.66-2.18,9,9,0,0,0-4.76-1,13.38,13.38,0,0,0-3.37.49,7.91,7.91,0,0,0-3.5,2.18,9.31,9.31,0,0,0-2.45,4.83,28.84,28.84,0,0,0-.5,5.12,40.49,40.49,0,0,0,.42,5.11,11.33,11.33,0,0,0,1.83,5.12,7.14,7.14,0,0,0,3,2.73c1.26.61,2.41,1.14,3.43,1.61l8.55,3.09a48.1,48.1,0,0,1,6.59,2.87,18.45,18.45,0,0,1,6.17,5.53,19.48,19.48,0,0,1,3.5,8.13,53.46,53.46,0,0,1,.7,8.83v3.37a41.51,41.51,0,0,1-1.82,13,22.86,22.86,0,0,1-4.91,8.69,21.45,21.45,0,0,1-7.42,4.63,29.47,29.47,0,0,1-10.8,1.82q-7.56,0-12.4-2.6a20.45,20.45,0,0,1-7.22-6,17.77,17.77,0,0,1-2.59-4.91,32.73,32.73,0,0,1-1.33-5.11,34.06,34.06,0,0,1-.49-4.28c-.05-1.21-.07-2-.07-2.24v-3.22h14v2.66a32.1,32.1,0,0,0,.35,4.2,9.21,9.21,0,0,0,1.9,4.49,7.31,7.31,0,0,0,4.06,2.73,17.69,17.69,0,0,0,3.64.49,12,12,0,0,0,6-1.19,9.77,9.77,0,0,0,2.8-2.31,9.44,9.44,0,0,0,1.9-4.7,40,40,0,0,0,.35-5v-3.65a36,36,0,0,0-.42-5.32,10.79,10.79,0,0,0-1.83-4.77,8.77,8.77,0,0,0-3.5-2.94c-1.4-.65-2.48-1.12-3.22-1.4l-10.23-3.65a35.27,35.27,0,0,1-7.29-3.71,15.73,15.73,0,0,1-5.61-7.22,20.47,20.47,0,0,1-1.82-7q-.28-3.63-.28-7.28v-2.81a25.41,25.41,0,0,1,2.1-10.72,24.37,24.37,0,0,1,5.19-7.5,19.57,19.57,0,0,1,7.78-4.69,30.64,30.64,0,0,1,9.18-1.33q10.5,0,16.95,6.51t6.45,18.85v3.23Z" style="fill:#0b637f"/><path d="M521.76,583.92h18.36c1.78,0,3.72,0,5.82.07a34.78,34.78,0,0,1,6.45.77,25.46,25.46,0,0,1,6.3,2.24,17.5,17.5,0,0,1,5.54,4.63,22.21,22.21,0,0,1,3.78,7.29,31.66,31.66,0,0,1,1.4,9.81v7.42a26.34,26.34,0,0,1-1.47,8.9,20,20,0,0,1-3.71,6.66,15.71,15.71,0,0,1-3.5,3.08,19,19,0,0,1-3.93,2L572.22,682H557.64L544.05,639.7h-8.27V682h-14Zm14,12.61v30.56h8a16.24,16.24,0,0,0,4.55-.63,9.85,9.85,0,0,0,4.14-2.6,7.79,7.79,0,0,0,2.52-4,24.28,24.28,0,0,0,.42-4.84v-7a14.37,14.37,0,0,0-.91-5.19,10.67,10.67,0,0,0-2.31-3.78,7.21,7.21,0,0,0-4.49-2.32q-2.38-.21-4.62-.21Z" style="fill:#0b637f"/><path d="M610.9,661H593l-4.63,21h-14l21.44-98.11H608.1L629.54,682h-14Zm-16.54-12.47h14.86l-7.57-37.28Z" style="fill:#0b637f"/><path d="M679.57,583.92v13.31H652v28.88h24.39v12.61H652v30h28V682h-42V583.92Z" style="fill:#0b637f"/><path d="M691.9,583.92h14v84.79h29.71V682H691.9Z" style="fill:#0b637f"/><line x1="513.86" y1="662.12" x2="675.33" y2="941.81" style="fill:none;stroke:#e6e6e6;stroke-miterlimit:10;stroke-width:9px"/><path d="M440.32,703.59H450v2.47l-6.73,17.09h6.57V726h-9.94v-2.82l6.58-16.73h-6.13Z" style="fill:#4d4d4d"/><path d="M453.43,703.59h3.21v17a3,3,0,0,0,.55,1.88,2.14,2.14,0,0,0,3.2,0,3.06,3.06,0,0,0,.55-1.88v-17h3.2v16.54a8,8,0,0,1-.5,3.07,5,5,0,0,1-1.28,1.9,4.35,4.35,0,0,1-1.73,1,6.66,6.66,0,0,1-1.84.27,6.79,6.79,0,0,1-1.85-.27,4.42,4.42,0,0,1-1.73-1,5.17,5.17,0,0,1-1.28-1.9,8.18,8.18,0,0,1-.5-3.07Z" style="fill:#4d4d4d"/><path d="M468.08,726V703.59h3.21L475.71,716h.13l4.2-12.38h3.21V726H480V712h-.16l-3.36,10.13h-1.7L471.45,712h-.16v14Z" style="fill:#4d4d4d"/><path d="M493.31,703.59h3.4l1.8,14h.12l2.57-14h2.4l2.57,14h.19l1.73-14h3.4L508,726h-2.88l-2.57-14.49h-.22L499.72,726h-2.88Z" style="fill:#4d4d4d"/><path d="M523.51,703.59v3H517.2v6.6h5.57v2.89H517.2V723h6.41v3H514V703.59Z" style="fill:#4d4d4d"/><path d="M526.75,703.59H530V723h6.8v3h-10Z" style="fill:#4d4d4d"/><path d="M535.53,703.59h11.16v3h-4V726h-3.2V706.64h-4Z" style="fill:#4d4d4d"/><path d="M547.9,703.59h3.4l1.8,14h.13l2.56-14h2.41l2.56,14H561l1.73-14h3.4L562.56,726h-2.89l-2.56-14.49h-.23L554.32,726h-2.89Z" style="fill:#4d4d4d"/><path d="M578.1,703.59v3h-6.31v6.6h5.58v2.89h-5.58V723h6.41v3h-9.62V703.59Z" style="fill:#4d4d4d"/><path d="M581.34,703.59h3.2V726h-3.2Z" style="fill:#4d4d4d"/><path d="M587.21,703.59h11.15v3h-4V726h-3.21V706.64h-4Z" style="fill:#4d4d4d"/><path d="M610.54,703.59v3h-6.31v6.6h5.58v2.89h-5.58V723h6.41v3H601V703.59Z" style="fill:#4d4d4d"/><path d="M613.78,703.59H617l5.36,14.11V703.59h3.2V726h-3.2L617,711.93V726h-3.2Z" style="fill:#4d4d4d"/><path d="M643.82,721.22h-4.11L638.66,726h-3.21l4.9-22.44h2.83l4.9,22.44h-3.21ZM640,718.37h3.4l-1.73-8.53Z" style="fill:#4d4d4d"/><path d="M650.42,703.59h3.21L659,717.7V703.59h3.21V726H659l-5.35-14.1V726h-3.21Z" style="fill:#4d4d4d"/><path d="M664.85,703.59H676v3h-4V726h-3.21V706.64h-4Z" style="fill:#4d4d4d"/><path d="M678.66,703.59h3.21V726h-3.21Z" style="fill:#4d4d4d"/><path d="M693.22,709.81v-.61a8.69,8.69,0,0,0-.08-1,2.18,2.18,0,0,0-.47-1.09,2.68,2.68,0,0,0-.61-.5,2,2,0,0,0-1.09-.24,3.24,3.24,0,0,0-.77.11,1.94,1.94,0,0,0-.8.5,2.1,2.1,0,0,0-.56,1.11,6.15,6.15,0,0,0-.11,1.17,9.85,9.85,0,0,0,.09,1.17,2.7,2.7,0,0,0,.42,1.17,1.59,1.59,0,0,0,.69.62l.78.37,2,.71a12.73,12.73,0,0,1,1.51.65,4.27,4.27,0,0,1,1.41,1.27,4.46,4.46,0,0,1,.8,1.86,12,12,0,0,1,.16,2v.77a9.39,9.39,0,0,1-.42,3,5.14,5.14,0,0,1-1.12,2,4.89,4.89,0,0,1-1.7,1.06,6.87,6.87,0,0,1-2.47.41,5.88,5.88,0,0,1-2.83-.59,4.7,4.7,0,0,1-1.65-1.36,4,4,0,0,1-.6-1.12,7.2,7.2,0,0,1-.3-1.17,6.65,6.65,0,0,1-.11-1c0-.28,0-.45,0-.52v-.73h3.21v.61a6.35,6.35,0,0,0,.08,1,2,2,0,0,0,.43,1,1.68,1.68,0,0,0,.93.63,4.41,4.41,0,0,0,.83.11,2.75,2.75,0,0,0,1.38-.27,2.27,2.27,0,0,0,.64-.53,2.08,2.08,0,0,0,.43-1.07,8,8,0,0,0,.08-1.14v-.84a8.63,8.63,0,0,0-.09-1.21,2.59,2.59,0,0,0-.42-1.09,2,2,0,0,0-.8-.68c-.32-.15-.57-.25-.74-.32l-2.34-.83a7.89,7.89,0,0,1-1.66-.85,3.55,3.55,0,0,1-1.29-1.65,4.72,4.72,0,0,1-.41-1.6c-.05-.56-.07-1.12-.07-1.67v-.64a5.87,5.87,0,0,1,.48-2.46,5.6,5.6,0,0,1,1.19-1.71,4.45,4.45,0,0,1,1.78-1.07,6.79,6.79,0,0,1,2.1-.31,5.25,5.25,0,0,1,3.88,1.49,5.89,5.89,0,0,1,1.47,4.31v.74Z" style="fill:#4d4d4d"/><path d="M709.53,703.59v3h-6.31v6.6h5.58v2.89h-5.58V723h6.41v3H700V703.59Z" style="fill:#4d4d4d"/><path d="M712.77,726V703.59H716L720.4,716h.13l4.2-12.38h3.2V726h-3.2V712h-.16l-3.37,10.13h-1.7L716.14,712H716v14Z" style="fill:#4d4d4d"/><path d="M731.88,703.59h3.2V726h-3.2Z" style="fill:#4d4d4d"/><path d="M737.74,703.59H748.9v3h-4V726h-3.2V706.64h-4Z" style="fill:#4d4d4d"/><path d="M751.56,703.59h3.2V726h-3.2Z" style="fill:#4d4d4d"/><path d="M766.11,709.81v-.61a8.69,8.69,0,0,0-.08-1,2.17,2.17,0,0,0-.46-1.09,2.92,2.92,0,0,0-.61-.5,2.07,2.07,0,0,0-1.09-.24,3.11,3.11,0,0,0-.77.11,2,2,0,0,0-.81.5,2.26,2.26,0,0,0-.56,1.11,7.08,7.08,0,0,0-.11,1.17,8.34,8.34,0,0,0,.1,1.17,2.57,2.57,0,0,0,.41,1.17,1.71,1.71,0,0,0,.69.62l.79.37,2,.71a11.94,11.94,0,0,1,1.5.65,4.17,4.17,0,0,1,1.41,1.27,4.34,4.34,0,0,1,.8,1.86,12,12,0,0,1,.16,2v.77a9.41,9.41,0,0,1-.41,3,5.27,5.27,0,0,1-1.12,2,5,5,0,0,1-1.7,1.06,6.91,6.91,0,0,1-2.47.41,5.93,5.93,0,0,1-2.84-.59,4.7,4.7,0,0,1-1.65-1.36,4,4,0,0,1-.59-1.12,8.5,8.5,0,0,1-.31-1.17,8.37,8.37,0,0,1-.11-1c0-.28,0-.45,0-.52v-.73h3.21v.61a8,8,0,0,0,.08,1,2.07,2.07,0,0,0,.43,1,1.68,1.68,0,0,0,.93.63,4.4,4.4,0,0,0,.84.11,2.69,2.69,0,0,0,1.37-.27,2.34,2.34,0,0,0,.65-.53,2.17,2.17,0,0,0,.43-1.07,9.81,9.81,0,0,0,.08-1.14v-.84a7.4,7.4,0,0,0-.1-1.21,2.46,2.46,0,0,0-.41-1.09,2,2,0,0,0-.81-.68l-.73-.32-2.34-.83a8,8,0,0,1-1.67-.85,3.6,3.6,0,0,1-1.28-1.65,4.52,4.52,0,0,1-.42-1.6c0-.56-.06-1.12-.06-1.67v-.64a5.87,5.87,0,0,1,.48-2.46,5.58,5.58,0,0,1,1.18-1.71,4.52,4.52,0,0,1,1.78-1.07,6.79,6.79,0,0,1,2.1-.31,5.21,5.21,0,0,1,3.88,1.49,5.9,5.9,0,0,1,1.48,4.31v.74Z" style="fill:#4d4d4d"/><path d="M772.91,726V703.59h3.2L780.54,716h.12l4.2-12.38h3.21V726h-3.21V712h-.16l-3.36,10.13h-1.7L776.27,712h-.16v14Z" style="fill:#4d4d4d"/><path d="M792,703.59h3.21v17a3.06,3.06,0,0,0,.54,1.88,2.15,2.15,0,0,0,3.21,0,3.06,3.06,0,0,0,.54-1.88v-17h3.21v16.54a8.18,8.18,0,0,1-.5,3.07,5.17,5.17,0,0,1-1.28,1.9,4.35,4.35,0,0,1-1.73,1,6.44,6.44,0,0,1-3.69,0,4.35,4.35,0,0,1-1.73-1,5.17,5.17,0,0,1-1.28-1.9,8.18,8.18,0,0,1-.5-3.07Z" style="fill:#4d4d4d"/><path d="M814.07,709.81v-.61a8.69,8.69,0,0,0-.08-1,2.18,2.18,0,0,0-.47-1.09,2.68,2.68,0,0,0-.61-.5,2,2,0,0,0-1.09-.24,3.24,3.24,0,0,0-.77.11,2,2,0,0,0-.8.5,2.18,2.18,0,0,0-.56,1.11,7.08,7.08,0,0,0-.11,1.17,9.85,9.85,0,0,0,.09,1.17,2.7,2.7,0,0,0,.42,1.17,1.59,1.59,0,0,0,.69.62l.79.37,1.95.71A12.06,12.06,0,0,1,815,714a4.27,4.27,0,0,1,1.41,1.27,4.46,4.46,0,0,1,.8,1.86,12,12,0,0,1,.16,2v.77a9.39,9.39,0,0,1-.42,3,5.14,5.14,0,0,1-1.12,2,4.89,4.89,0,0,1-1.7,1.06,6.87,6.87,0,0,1-2.47.41,5.88,5.88,0,0,1-2.83-.59,4.7,4.7,0,0,1-1.65-1.36,4,4,0,0,1-.6-1.12,7.2,7.2,0,0,1-.3-1.17,6.65,6.65,0,0,1-.11-1c0-.28,0-.45,0-.52v-.73h3.21v.61a6.35,6.35,0,0,0,.08,1,2,2,0,0,0,.43,1,1.68,1.68,0,0,0,.93.63,4.41,4.41,0,0,0,.83.11,2.75,2.75,0,0,0,1.38-.27,2.27,2.27,0,0,0,.64-.53,2.08,2.08,0,0,0,.43-1.07,8,8,0,0,0,.08-1.14v-.84a8.63,8.63,0,0,0-.09-1.21,2.47,2.47,0,0,0-.42-1.09,2,2,0,0,0-.8-.68c-.32-.15-.57-.25-.74-.32l-2.34-.83a8.14,8.14,0,0,1-1.66-.85,3.55,3.55,0,0,1-1.29-1.65,4.72,4.72,0,0,1-.41-1.6c-.05-.56-.07-1.12-.07-1.67v-.64a5.87,5.87,0,0,1,.48-2.46,5.6,5.6,0,0,1,1.19-1.71,4.45,4.45,0,0,1,1.78-1.07,6.79,6.79,0,0,1,2.1-.31,5.25,5.25,0,0,1,3.88,1.49,5.89,5.89,0,0,1,1.47,4.31v.74Z" style="fill:#4d4d4d"/><path d="M440.36,732.59h3.2v17a3,3,0,0,0,.55,1.88,2.14,2.14,0,0,0,3.2,0,3.06,3.06,0,0,0,.55-1.88v-17h3.2v16.54a8.19,8.19,0,0,1-.49,3.07,5.18,5.18,0,0,1-1.29,1.9,4.35,4.35,0,0,1-1.73,1,6.4,6.4,0,0,1-3.68,0,4.46,4.46,0,0,1-1.74-1,5.17,5.17,0,0,1-1.28-1.9,8.19,8.19,0,0,1-.49-3.07Z" style="fill:#4d4d4d"/><path d="M455,732.59h3.21l5.35,14.11V732.59h3.21V755h-3.21l-5.35-14.1V755H455Z" style="fill:#4d4d4d"/><path d="M470.71,732.59H475l1.11,0a9.08,9.08,0,0,1,1.22.16,5.92,5.92,0,0,1,1.21.4,4.82,4.82,0,0,1,1.14.76,4.4,4.4,0,0,1,1,1.26,6.08,6.08,0,0,1,.52,1.37,11,11,0,0,1,.21,1.26c0,.4,0,.71,0,.95v9.9a11.77,11.77,0,0,1-.24,2.34,4.73,4.73,0,0,1-1.2,2.25,5.41,5.41,0,0,1-1.14.93,5.57,5.57,0,0,1-1.18.53,6.31,6.31,0,0,1-1.16.24,9.76,9.76,0,0,1-1,.06h-4.78Zm3.21,3.14v16.16h1.44a4.76,4.76,0,0,0,1.09-.13,2,2,0,0,0,1.06-.64,2.33,2.33,0,0,0,.62-1.31,8.8,8.8,0,0,0,.12-1.32v-9.94a5,5,0,0,0-.12-1,2.43,2.43,0,0,0-.49-1,1.67,1.67,0,0,0-1-.64,5.73,5.73,0,0,0-1.13-.1Z" style="fill:#4d4d4d"/><path d="M492.8,732.59h4.33l1.1,0a8.68,8.68,0,0,1,1.22.16,5.81,5.81,0,0,1,1.22.4,4.82,4.82,0,0,1,1.14.76,4.59,4.59,0,0,1,1,1.26,5.6,5.6,0,0,1,.51,1.37,7.88,7.88,0,0,1,.21,1.26c0,.4.05.71.05.95v9.9a11.77,11.77,0,0,1-.24,2.34,4.73,4.73,0,0,1-1.2,2.25,6,6,0,0,1-1.14.93,5.64,5.64,0,0,1-1.19.53,6.21,6.21,0,0,1-1.15.24,9.76,9.76,0,0,1-1,.06H492.8Zm3.21,3.14v16.16h1.44a4.82,4.82,0,0,0,1.09-.13,2.06,2.06,0,0,0,1.06-.64,2.33,2.33,0,0,0,.62-1.31,8.64,8.64,0,0,0,.11-1.32v-9.94a5,5,0,0,0-.11-1,2.43,2.43,0,0,0-.49-1,1.66,1.66,0,0,0-1-.64,5.55,5.55,0,0,0-1.12-.1Z" style="fill:#4d4d4d"/><path d="M516.84,732.59v3h-6.31v6.6h5.58v2.89h-5.58V752h6.41v3h-9.62V732.59Z" style="fill:#4d4d4d"/><path d="M520.08,755V732.59h3.21L527.71,745h.13l4.2-12.38h3.2V755H532V741h-.16l-3.37,10.13h-1.7L523.45,741h-.16v14Z" style="fill:#4d4d4d"/><path d="M546.62,749.13V738.49a11.85,11.85,0,0,1,.26-2.48,4.47,4.47,0,0,1,1.41-2.3,5.27,5.27,0,0,1,1.72-1.05,6.54,6.54,0,0,1,4.45,0,5.37,5.37,0,0,1,1.72,1.05,4.47,4.47,0,0,1,1.41,2.3,11.85,11.85,0,0,1,.25,2.48v10.64a12,12,0,0,1-.25,2.49,4.48,4.48,0,0,1-1.41,2.29,5.58,5.58,0,0,1-1.72,1.06,6.7,6.7,0,0,1-4.45,0,5.47,5.47,0,0,1-1.72-1.06,4.48,4.48,0,0,1-1.41-2.29A12,12,0,0,1,546.62,749.13Zm8,.48V738a4.88,4.88,0,0,0-.11-1,2,2,0,0,0-.57-1,2.36,2.36,0,0,0-.68-.45,3,3,0,0,0-2.09,0,2.29,2.29,0,0,0-.69.45,2,2,0,0,0-.56,1,4.88,4.88,0,0,0-.11,1v11.6a4.81,4.81,0,0,0,.11,1,2,2,0,0,0,.56,1,2.29,2.29,0,0,0,.69.45,3,3,0,0,0,2.09,0,2.36,2.36,0,0,0,.68-.45,2,2,0,0,0,.57-1A4.81,4.81,0,0,0,554.64,749.61Z" style="fill:#4d4d4d"/><path d="M561.66,732.59H566l.86,0a7.48,7.48,0,0,1,1.09.15,7.16,7.16,0,0,1,1.16.32,4.84,4.84,0,0,1,1.12.59,4.06,4.06,0,0,1,1.18,1.24,5.46,5.46,0,0,1,.61,1.39,6.22,6.22,0,0,1,.23,1.38c0,.45,0,.83,0,1.15a9.92,9.92,0,0,1-.16,1.94,3.34,3.34,0,0,1-.8,1.56,4.58,4.58,0,0,1-.64.62c-.22.16-.41.3-.58.4a2.92,2.92,0,0,1,1,.68,6.5,6.5,0,0,1,.56.73,4,4,0,0,1,.56,1.43,11.22,11.22,0,0,1,.08,1.39v1.7q0,.36,0,.93a5.58,5.58,0,0,1-.21,1.22,5.38,5.38,0,0,1-.58,1.32,4.31,4.31,0,0,1-1.1,1.21,5.22,5.22,0,0,1-1.46.74,7.11,7.11,0,0,1-2.36.32h-4.87Zm3.2,2.89v6.41h1.54a2.71,2.71,0,0,0,1.32-.27,2.85,2.85,0,0,0,.73-.57,2.27,2.27,0,0,0,.45-.86,3.45,3.45,0,0,0,.16-1.06v-1.38a2.22,2.22,0,0,0-.17-.85,3,3,0,0,0-.44-.69,2.64,2.64,0,0,0-.78-.51,3.17,3.17,0,0,0-1.3-.22Zm0,9.29v7.38h1.45a5,5,0,0,0,1-.15,2,2,0,0,0,1.17-.85,4,4,0,0,0,.32-.62,3.57,3.57,0,0,0,.17-.66,4.54,4.54,0,0,0,.07-.58c0-.17,0-.31,0-.41v-1.06a5.42,5.42,0,0,0-.16-1.43,2,2,0,0,0-.7-1,2.63,2.63,0,0,0-1.7-.58Z" style="fill:#4d4d4d"/><path d="M580.73,732.59h3.21v16.09q0,.62,0,1.29a7.75,7.75,0,0,1-.2,1.34,6.11,6.11,0,0,1-.49,1.35,4.74,4.74,0,0,1-.92,1.25,4.2,4.2,0,0,1-2,1.2,9.54,9.54,0,0,1-2.07.24,6.41,6.41,0,0,1-.8-.05,4.67,4.67,0,0,1-1.06-.24,5.57,5.57,0,0,1-1.19-.57,5.43,5.43,0,0,1-1.18-1.06l2.47-2.08a1.75,1.75,0,0,0,.93.72,3.53,3.53,0,0,0,.86.14,3.29,3.29,0,0,0,1-.17,1.8,1.8,0,0,0,.85-.66,2.69,2.69,0,0,0,.5-1.12,7,7,0,0,0,.11-1.16Z" style="fill:#4d4d4d"/><path d="M597.4,732.59v3h-6.31v6.6h5.57v2.89h-5.57V752h6.41v3h-9.62V732.59Z" style="fill:#4d4d4d"/><path d="M600.64,732.59h3.2v10.8l5.1-10.8h3.37l-4.55,9.2L613.14,755h-3.49l-3.82-10-2,3.46V755h-3.2Z" style="fill:#4d4d4d"/><path d="M613.37,732.59h11.15v3h-4V755h-3.21V735.64h-4Z" style="fill:#4d4d4d"/><path d="M642.15,738.81v-.61a8.69,8.69,0,0,0-.08-1,2.17,2.17,0,0,0-.46-1.09,2.92,2.92,0,0,0-.61-.5,2.07,2.07,0,0,0-1.09-.24,3.17,3.17,0,0,0-.77.11,1.79,1.79,0,0,0-.8.5,2.1,2.1,0,0,0-.56,1.11,6.12,6.12,0,0,0-.12,1.17,10.2,10.2,0,0,0,.1,1.17,2.46,2.46,0,0,0,.42,1.17,1.59,1.59,0,0,0,.69.62l.78.37,2,.71a11.94,11.94,0,0,1,1.5.65,4.08,4.08,0,0,1,1.41,1.27,4.49,4.49,0,0,1,.81,1.86,13,13,0,0,1,.16,2v.77a9.39,9.39,0,0,1-.42,3,5.27,5.27,0,0,1-1.12,2,5,5,0,0,1-1.7,1.06,6.91,6.91,0,0,1-2.47.41,5.93,5.93,0,0,1-2.84-.59,4.7,4.7,0,0,1-1.65-1.36,4,4,0,0,1-.59-1.12,8.5,8.5,0,0,1-.31-1.17,8.37,8.37,0,0,1-.11-1c0-.28,0-.45,0-.52v-.73h3.21v.61a8,8,0,0,0,.08,1,2.11,2.11,0,0,0,.43,1,1.68,1.68,0,0,0,.93.63,4.5,4.5,0,0,0,.84.11,2.69,2.69,0,0,0,1.37-.27,2.34,2.34,0,0,0,.65-.53,2.17,2.17,0,0,0,.43-1.07,9.81,9.81,0,0,0,.08-1.14v-.84a7.4,7.4,0,0,0-.1-1.21,2.46,2.46,0,0,0-.41-1.09,2,2,0,0,0-.81-.68l-.73-.32-2.34-.83a8.47,8.47,0,0,1-1.67-.85,3.6,3.6,0,0,1-1.28-1.65,4.57,4.57,0,0,1-.42-1.6c0-.56-.06-1.12-.06-1.67v-.64a5.87,5.87,0,0,1,.48-2.46,5.58,5.58,0,0,1,1.18-1.71,4.52,4.52,0,0,1,1.78-1.07,6.88,6.88,0,0,1,2.1-.31,5.21,5.21,0,0,1,3.88,1.49,5.84,5.84,0,0,1,1.48,4.31v.74Z" style="fill:#4d4d4d"/><path d="M658.47,732.59v3h-6.32v6.6h5.58v2.89h-5.58V752h6.41v3H649V732.59Z" style="fill:#4d4d4d"/><path d="M661.71,732.59h3.2V755h-3.2Z" style="fill:#4d4d4d"/><path d="M668.85,732.59h3.21l5.35,14.11V732.59h3.21V755h-3.21l-5.35-14.1V755h-3.21Z" style="fill:#4d4d4d"/><path d="M694.08,732.59v3h-6.31v6.6h5.58v2.89h-5.58V752h6.41v3h-9.62V732.59Z" style="fill:#4d4d4d"/><path d="M697.32,732.59h4.2l1.33,0a8.62,8.62,0,0,1,1.48.17,5.78,5.78,0,0,1,1.44.52,3.84,3.84,0,0,1,1.26,1.05,5,5,0,0,1,.87,1.67,7.41,7.41,0,0,1,.32,2.25V740a5.9,5.9,0,0,1-.34,2,4.32,4.32,0,0,1-.85,1.52,3.37,3.37,0,0,1-.8.71,4.73,4.73,0,0,1-.9.45L708.86,755h-3.33l-3.11-9.68h-1.89V755h-3.21Zm3.21,2.89v7h1.82a3.65,3.65,0,0,0,1-.14,2.24,2.24,0,0,0,.94-.59,1.85,1.85,0,0,0,.58-.92,5.81,5.81,0,0,0,.09-1.1v-1.6a3.5,3.5,0,0,0-.2-1.19,2.62,2.62,0,0,0-.53-.87,1.72,1.72,0,0,0-1-.53c-.36,0-.71,0-1.06,0Z" style="fill:#4d4d4d"/><path d="M719.25,732.59h4.32l.87,0a7.48,7.48,0,0,1,1.09.15,7.05,7.05,0,0,1,1.15.32,4.7,4.7,0,0,1,1.13.59,4.18,4.18,0,0,1,1.18,1.24,5.46,5.46,0,0,1,.61,1.39,6.86,6.86,0,0,1,.23,1.38c0,.45,0,.83,0,1.15a10.76,10.76,0,0,1-.16,1.94,3.43,3.43,0,0,1-.8,1.56,4.13,4.13,0,0,1-.65.62,6.16,6.16,0,0,1-.57.4,2.92,2.92,0,0,1,1,.68,6.5,6.5,0,0,1,.56.73,4.25,4.25,0,0,1,.56,1.43,11.22,11.22,0,0,1,.08,1.39v1.7q0,.36,0,.93a6.25,6.25,0,0,1-.21,1.22,5.38,5.38,0,0,1-.58,1.32,4.2,4.2,0,0,1-1.11,1.21,5.15,5.15,0,0,1-1.45.74,7.11,7.11,0,0,1-2.36.32h-4.87Zm3.2,2.89v6.41H724a2.71,2.71,0,0,0,1.32-.27,2.85,2.85,0,0,0,.73-.57,2.42,2.42,0,0,0,.45-.86,3.45,3.45,0,0,0,.16-1.06v-1.38a2.22,2.22,0,0,0-.17-.85,3,3,0,0,0-.44-.69,2.64,2.64,0,0,0-.78-.51,3.2,3.2,0,0,0-1.3-.22Zm0,9.29v7.38h1.45a5,5,0,0,0,1-.15,2,2,0,0,0,1.17-.85,4,4,0,0,0,.32-.62,3.57,3.57,0,0,0,.17-.66c0-.21.06-.41.07-.58s0-.31,0-.41v-1.06a5.42,5.42,0,0,0-.16-1.43,2.08,2.08,0,0,0-.7-1,2.63,2.63,0,0,0-1.7-.58Z" style="fill:#4d4d4d"/><path d="M743.32,732.59v3H737v6.6h5.57v2.89H737V752h6.41v3H733.8V732.59Z" style="fill:#4d4d4d"/><path d="M757.62,739h-3.21v-1.12a4.9,4.9,0,0,0-.09-.9,1.9,1.9,0,0,0-.55-.93,2.45,2.45,0,0,0-.67-.45,2.68,2.68,0,0,0-1.06-.19,2.26,2.26,0,0,0-1.07.23,2.32,2.32,0,0,0-1.26,1.73,9.87,9.87,0,0,0-.08,1.22V749.1a10.29,10.29,0,0,0,.08,1.16,2.43,2.43,0,0,0,.47,1.15,2.21,2.21,0,0,0,.75.58,2.44,2.44,0,0,0,2.07,0,2.18,2.18,0,0,0,.83-.66,2.32,2.32,0,0,0,.52-1.28q.06-.74.06-1.35v-3h-2.72v-2.88h5.93V755H756l-.83-1.73a3.34,3.34,0,0,1-.77,1,4.49,4.49,0,0,1-.77.55,3.86,3.86,0,0,1-1.39.46,8.68,8.68,0,0,1-1.11.08,6,6,0,0,1-1.81-.3,3.81,3.81,0,0,1-1.75-1.3,4.58,4.58,0,0,1-1-2,10.82,10.82,0,0,1-.19-1.86V738.49a12.87,12.87,0,0,1,.16-2,4.8,4.8,0,0,1,.9-2.05,4.44,4.44,0,0,1,1.07-1.09,5,5,0,0,1,1.2-.64,5.53,5.53,0,0,1,1.21-.31,8.41,8.41,0,0,1,1-.08,6.32,6.32,0,0,1,2.27.39,4.54,4.54,0,0,1,1.7,1.05,5.91,5.91,0,0,1,1.14,1.73,6.46,6.46,0,0,1,.5,2.67Z" style="fill:#4d4d4d"/><path d="M761.43,732.59h3.21V755h-3.21Z" style="fill:#4d4d4d"/><path d="M778.1,732.59v3h-6.31v6.6h5.57v2.89h-5.57V752h6.41v3h-9.62V732.59Z" style="fill:#4d4d4d"/><path d="M781.34,732.59h4.2l1.33,0a8.39,8.39,0,0,1,1.47.17,5.71,5.71,0,0,1,1.45.52,3.84,3.84,0,0,1,1.26,1.05,5.17,5.17,0,0,1,.87,1.67,7.41,7.41,0,0,1,.32,2.25V740a5.9,5.9,0,0,1-.34,2,4.48,4.48,0,0,1-.85,1.52,3.37,3.37,0,0,1-.8.71,4.73,4.73,0,0,1-.9.45L792.88,755h-3.33l-3.11-9.68h-1.9V755h-3.2Zm3.2,2.89v7h1.83a3.53,3.53,0,0,0,1-.14,2.21,2.21,0,0,0,1-.59,1.85,1.85,0,0,0,.58-.92,5.81,5.81,0,0,0,.09-1.1v-1.6a3.27,3.27,0,0,0-.21-1.19,2.33,2.33,0,0,0-.53-.87,1.69,1.69,0,0,0-1-.53c-.36,0-.72,0-1.06,0Z" style="fill:#4d4d4d"/><path d="M795.7,732.59H800l1.1,0a8.68,8.68,0,0,1,1.22.16,6,6,0,0,1,1.22.4,5,5,0,0,1,1.14.76,4.59,4.59,0,0,1,1,1.26,5.6,5.6,0,0,1,.51,1.37,7.88,7.88,0,0,1,.21,1.26c0,.4.05.71.05.95v9.9a11.77,11.77,0,0,1-.24,2.34,4.73,4.73,0,0,1-1.2,2.25,6,6,0,0,1-1.14.93,5.64,5.64,0,0,1-1.19.53,6.21,6.21,0,0,1-1.15.24,9.9,9.9,0,0,1-1,.06H795.7Zm3.21,3.14v16.16h1.44a4.82,4.82,0,0,0,1.09-.13,2.06,2.06,0,0,0,1.06-.64,2.33,2.33,0,0,0,.62-1.31,8.64,8.64,0,0,0,.11-1.32v-9.94a5,5,0,0,0-.11-1,2.34,2.34,0,0,0-.5-1,1.64,1.64,0,0,0-1-.64,5.55,5.55,0,0,0-1.12-.1Z" style="fill:#4d4d4d"/><path d="M819.74,732.59v3h-6.31v6.6H819v2.89h-5.58V752h6.41v3h-9.62V732.59Z" style="fill:#4d4d4d"/><path d="M451.54,420.58,446.8,443H444l-4.74-22.4h3.52l2.59,15.49h.13l2.69-15.49Z" style="fill:#b3b3b3"/><path d="M453.11,437.09V426.47a11.92,11.92,0,0,1,.25-2.48,4.48,4.48,0,0,1,1.41-2.29,5.51,5.51,0,0,1,1.71-1.05,6.54,6.54,0,0,1,4.45,0,5.51,5.51,0,0,1,1.71,1.05,4.48,4.48,0,0,1,1.41,2.29,11.92,11.92,0,0,1,.26,2.48v10.62a11.85,11.85,0,0,1-.26,2.48,4.44,4.44,0,0,1-1.41,2.29,5.53,5.53,0,0,1-1.71,1.06,6.7,6.7,0,0,1-4.45,0,5.53,5.53,0,0,1-1.71-1.06,4.44,4.44,0,0,1-1.41-2.29A11.85,11.85,0,0,1,453.11,437.09Zm8,.48V426a4.88,4.88,0,0,0-.11-1,2,2,0,0,0-.57-.94,2.23,2.23,0,0,0-.68-.45,2.54,2.54,0,0,0-1-.19,2.51,2.51,0,0,0-1,.19,2.29,2.29,0,0,0-.69.45,1.91,1.91,0,0,0-.56.94,4.28,4.28,0,0,0-.11,1v11.58a4.23,4.23,0,0,0,.11,1,1.93,1.93,0,0,0,.56.95,2.1,2.1,0,0,0,.69.44,2.5,2.5,0,0,0,1,.2,2.54,2.54,0,0,0,1-.2,2.12,2.12,0,0,0,1.25-1.39A4.81,4.81,0,0,0,461.11,437.57Z" style="fill:#b3b3b3"/><path d="M468,420.58h4.19l1.33,0a7.57,7.57,0,0,1,1.47.18,5.38,5.38,0,0,1,1.44.51,3.84,3.84,0,0,1,1.26,1,5,5,0,0,1,.87,1.67,7.39,7.39,0,0,1,.32,2.24v1.69a5.9,5.9,0,0,1-.34,2,4.51,4.51,0,0,1-.85,1.52,3.56,3.56,0,0,1-.8.7,4.38,4.38,0,0,1-.89.45L479.54,443h-3.33l-3.1-9.66h-1.89V443H468Zm3.2,2.88v7H473a3.9,3.9,0,0,0,1-.14,2.3,2.3,0,0,0,.95-.6,1.73,1.73,0,0,0,.57-.91,5.09,5.09,0,0,0,.1-1.1v-1.6a3.31,3.31,0,0,0-.21-1.19A2.34,2.34,0,0,0,475,424a1.64,1.64,0,0,0-1-.53c-.36,0-.72-.05-1.06-.05Z" style="fill:#b3b3b3"/><path d="M480.05,420.58h11.14v3h-4V443H484V423.62h-4Z" style="fill:#b3b3b3"/><path d="M493.75,420.58h4.19l1.33,0a7.57,7.57,0,0,1,1.47.18,5.38,5.38,0,0,1,1.44.51,3.84,3.84,0,0,1,1.26,1,5.37,5.37,0,0,1,.87,1.67,7.4,7.4,0,0,1,.31,2.24v1.69a6.15,6.15,0,0,1-.33,2,4.68,4.68,0,0,1-.85,1.52,3.56,3.56,0,0,1-.8.7,5,5,0,0,1-.89.45L505.27,443h-3.33l-3.11-9.66H497V443h-3.2Zm3.2,2.88v7h1.82a4,4,0,0,0,1-.14,2.21,2.21,0,0,0,.94-.6,1.76,1.76,0,0,0,.58-.91,5.82,5.82,0,0,0,.1-1.1v-1.6a3.31,3.31,0,0,0-.21-1.19,2.47,2.47,0,0,0-.53-.86,1.64,1.64,0,0,0-1-.53c-.37,0-.72-.05-1.06-.05Z" style="fill:#b3b3b3"/><path d="M514.42,438.18h-4.1l-1.05,4.8h-3.2l4.89-22.4h2.82l4.89,22.4h-3.2Zm-6.18-22.84v3.2h3v-3.2Zm2.4,20H514l-1.72-8.51Zm5.67-16.79v-3.2h-3v3.2Z" style="fill:#b3b3b3"/><path d="M531.15,427H528v-1.12a4.88,4.88,0,0,0-.09-.89,1.9,1.9,0,0,0-.55-.93,2.31,2.31,0,0,0-.67-.45,2.5,2.5,0,0,0-1-.19,2.34,2.34,0,0,0-1.08.22,2.55,2.55,0,0,0-.72.58,2.3,2.3,0,0,0-.52,1.15,8.33,8.33,0,0,0-.08,1.22v10.49a8.14,8.14,0,0,0,.08,1.15,2.32,2.32,0,0,0,.46,1.16,2.19,2.19,0,0,0,.75.57,2.37,2.37,0,0,0,1,.23,2.45,2.45,0,0,0,1-.24,2.37,2.37,0,0,0,1.34-1.94c0-.49.06-.94.06-1.34v-3h-2.72v-2.88h5.92V443h-1.6l-.83-1.73a3.34,3.34,0,0,1-.77,1,4.45,4.45,0,0,1-.76.55,3.9,3.9,0,0,1-1.4.46,8.54,8.54,0,0,1-1.1.08,6,6,0,0,1-1.81-.3,3.74,3.74,0,0,1-1.74-1.3,4.54,4.54,0,0,1-1-2.05,10.62,10.62,0,0,1-.19-1.85V426.47a13,13,0,0,1,.16-2.05,4.67,4.67,0,0,1,.89-2,4.63,4.63,0,0,1,1.07-1.09,5.39,5.39,0,0,1,1.2-.64,6.25,6.25,0,0,1,1.2-.31,8.56,8.56,0,0,1,1-.08,6.38,6.38,0,0,1,2.28.39,4.71,4.71,0,0,1,1.69,1.05,5.91,5.91,0,0,1,1.14,1.73,6.42,6.42,0,0,1,.49,2.66Z" style="fill:#b3b3b3"/><path d="M544.37,420.58v3h-6.3v6.6h5.56v2.88h-5.56v6.84h6.4v3h-9.6v-22.4Z" style="fill:#b3b3b3"/><path d="M547.19,439.46h3.52V443l-3.52,3.2Z" style="fill:#b3b3b3"/><path d="M560.56,420.58H564l1.8,14h.12l2.56-14h2.4l2.56,14h.19l1.73-14h3.39L575.18,443H572.3l-2.56-14.46h-.22L567,443h-2.88Z" style="fill:#b3b3b3"/><path d="M580.43,437.09V426.47a11.92,11.92,0,0,1,.26-2.48,4.48,4.48,0,0,1,1.41-2.29,5.51,5.51,0,0,1,1.71-1.05,6.54,6.54,0,0,1,4.45,0A5.51,5.51,0,0,1,590,421.7a4.48,4.48,0,0,1,1.41,2.29,11.92,11.92,0,0,1,.25,2.48v10.62a11.85,11.85,0,0,1-.25,2.48,4.44,4.44,0,0,1-1.41,2.29,5.53,5.53,0,0,1-1.71,1.06,6.7,6.7,0,0,1-4.45,0,5.53,5.53,0,0,1-1.71-1.06,4.44,4.44,0,0,1-1.41-2.29A11.85,11.85,0,0,1,580.43,437.09Zm8,.48V426a4.88,4.88,0,0,0-.11-1,1.91,1.91,0,0,0-.56-.94,2.29,2.29,0,0,0-.69-.45,2.51,2.51,0,0,0-1-.19,2.54,2.54,0,0,0-1,.19,2.29,2.29,0,0,0-.69.45,2.07,2.07,0,0,0-.56.94,4.88,4.88,0,0,0-.11,1v11.58a4.81,4.81,0,0,0,.11,1A2.06,2.06,0,0,0,585,440a2.54,2.54,0,0,0,1,.2,2.5,2.5,0,0,0,1-.2,2.1,2.1,0,0,0,.69-.44,1.93,1.93,0,0,0,.56-.95A4.81,4.81,0,0,0,588.43,437.57Z" style="fill:#b3b3b3"/><path d="M595.34,420.58h4.2l1.32,0a7.57,7.57,0,0,1,1.47.18,5.33,5.33,0,0,1,1.45.51,4,4,0,0,1,1.26,1,5.16,5.16,0,0,1,.86,1.67,7.09,7.09,0,0,1,.32,2.24v1.69a6.15,6.15,0,0,1-.33,2,4.87,4.87,0,0,1-.85,1.52,3.8,3.8,0,0,1-.8.7,4.73,4.73,0,0,1-.9.45L606.86,443h-3.32l-3.11-9.66h-1.89V443h-3.2Zm3.2,2.88v7h1.83a4,4,0,0,0,1-.14,2.27,2.27,0,0,0,.94-.6,1.82,1.82,0,0,0,.58-.91,5.89,5.89,0,0,0,.09-1.1v-1.6a3.54,3.54,0,0,0-.2-1.19,2.47,2.47,0,0,0-.53-.86,1.64,1.64,0,0,0-1-.53c-.36,0-.71-.05-1-.05Z" style="fill:#b3b3b3"/><path d="M609.58,420.58h3.2v10.79l5.09-10.79h3.36l-4.54,9.19L622.06,443h-3.48l-3.81-10-2,3.45V443h-3.2Z" style="fill:#b3b3b3"/><path d="M631,426.79v-.61a6.76,6.76,0,0,0-.08-1,2.09,2.09,0,0,0-.46-1.08,2.68,2.68,0,0,0-.61-.5,2,2,0,0,0-1.09-.24,3.1,3.1,0,0,0-.76.11,1.79,1.79,0,0,0-.8.5,2.11,2.11,0,0,0-.56,1.1,6.28,6.28,0,0,0-.12,1.17,10.2,10.2,0,0,0,.1,1.17,2.46,2.46,0,0,0,.42,1.17,1.69,1.69,0,0,0,.68.62l.79.37,2,.7a10.73,10.73,0,0,1,1.5.66,4.14,4.14,0,0,1,1.41,1.26,4.46,4.46,0,0,1,.8,1.86,11.86,11.86,0,0,1,.16,2v.77a9.44,9.44,0,0,1-.42,3,5.21,5.21,0,0,1-1.11,2,5,5,0,0,1-1.7,1.06,6.89,6.89,0,0,1-2.46.41,5.93,5.93,0,0,1-2.84-.59,4.64,4.64,0,0,1-1.64-1.36,3.9,3.9,0,0,1-.6-1.12,7.75,7.75,0,0,1-.3-1.17,8.22,8.22,0,0,1-.11-1c0-.28,0-.45,0-.52v-.73h3.2v.61a8,8,0,0,0,.08,1,2.21,2.21,0,0,0,.43,1,1.66,1.66,0,0,0,.93.62,3.82,3.82,0,0,0,.83.12,2.64,2.64,0,0,0,1.38-.28,2.26,2.26,0,0,0,.64-.52,2.17,2.17,0,0,0,.43-1.08,9.51,9.51,0,0,0,.08-1.13v-.83a8.77,8.77,0,0,0-.09-1.22,2.59,2.59,0,0,0-.42-1.09,2,2,0,0,0-.8-.67c-.32-.15-.57-.25-.74-.32l-2.33-.83a8.22,8.22,0,0,1-1.67-.85,3.6,3.6,0,0,1-1.28-1.65,4.67,4.67,0,0,1-.41-1.6c0-.55-.07-1.11-.07-1.66v-.64a5.79,5.79,0,0,1,.48-2.45,5.6,5.6,0,0,1,1.19-1.71,4.42,4.42,0,0,1,1.77-1.07,7.11,7.11,0,0,1,2.1-.31,5.21,5.21,0,0,1,3.87,1.49,5.88,5.88,0,0,1,1.47,4.31v.73Z" style="fill:#b3b3b3"/><path d="M637.71,420.58h3.2v9.64h4.32v-9.64h3.2V443h-3.2V433.1h-4.32V443h-3.2Z" style="fill:#b3b3b3"/><path d="M652.14,437.09V426.47a11.92,11.92,0,0,1,.26-2.48,4.48,4.48,0,0,1,1.41-2.29,5.51,5.51,0,0,1,1.71-1.05,6.54,6.54,0,0,1,4.45,0,5.51,5.51,0,0,1,1.71,1.05,4.48,4.48,0,0,1,1.41,2.29,11.92,11.92,0,0,1,.25,2.48v10.62a11.85,11.85,0,0,1-.25,2.48,4.44,4.44,0,0,1-1.41,2.29,5.53,5.53,0,0,1-1.71,1.06,6.7,6.7,0,0,1-4.45,0,5.53,5.53,0,0,1-1.71-1.06,4.44,4.44,0,0,1-1.41-2.29A11.85,11.85,0,0,1,652.14,437.09Zm8,.48V426a4.28,4.28,0,0,0-.11-1,1.91,1.91,0,0,0-.56-.94,2.29,2.29,0,0,0-.69-.45,2.48,2.48,0,0,0-1-.19,2.54,2.54,0,0,0-1,.19,2.23,2.23,0,0,0-.68.45,1.91,1.91,0,0,0-.56.94,4.29,4.29,0,0,0-.12,1v11.58a4.23,4.23,0,0,0,.12,1,1.93,1.93,0,0,0,.56.95,2.05,2.05,0,0,0,.68.44,2.54,2.54,0,0,0,1,.2,2.47,2.47,0,0,0,1-.2,2.1,2.1,0,0,0,.69-.44,1.93,1.93,0,0,0,.56-.95A4.23,4.23,0,0,0,660.14,437.57Z" style="fill:#b3b3b3"/><path d="M667.05,443v-22.4h4.77c.34,0,.71,0,1.09,0a6.52,6.52,0,0,1,1.15.17,4.92,4.92,0,0,1,2.24,1.27,4.82,4.82,0,0,1,1.36,2.49,13.66,13.66,0,0,1,.27,2.63v.64c0,.32,0,.66,0,1a7.07,7.07,0,0,1-.17,1.16,6.58,6.58,0,0,1-.42,1.2,4.49,4.49,0,0,1-.75,1.14,4.17,4.17,0,0,1-1,.91,5.57,5.57,0,0,1-1.14.53,6,6,0,0,1-1.15.26,10.52,10.52,0,0,1-1.09.06h-1.89V443Zm3.2-19.52v7.78H672a4.75,4.75,0,0,0,1-.14,2.3,2.3,0,0,0,1.11-.69,2,2,0,0,0,.56-1.12c0-.39,0-.78,0-1.19v-1.47a11,11,0,0,0-.09-1.31,2,2,0,0,0-.77-1.28,2.14,2.14,0,0,0-1.2-.51c-.44,0-.87-.07-1.3-.07Z" style="fill:#b3b3b3"/><path d="M688.21,426.79v-.61a8.69,8.69,0,0,0-.08-1,2.19,2.19,0,0,0-.47-1.08,2.68,2.68,0,0,0-.61-.5,2,2,0,0,0-1.08-.24,3.17,3.17,0,0,0-.77.11,1.79,1.79,0,0,0-.8.5,2.11,2.11,0,0,0-.56,1.1,6.22,6.22,0,0,0-.11,1.17,9.85,9.85,0,0,0,.09,1.17,2.58,2.58,0,0,0,.42,1.17,1.65,1.65,0,0,0,.69.62l.78.37,1.95.7a11.37,11.37,0,0,1,1.51.66,4.11,4.11,0,0,1,1.4,1.26,4.34,4.34,0,0,1,.8,1.86,11.86,11.86,0,0,1,.16,2v.77a9.75,9.75,0,0,1-.41,3,5.22,5.22,0,0,1-1.12,2,4.89,4.89,0,0,1-1.7,1.06,6.82,6.82,0,0,1-2.46.41,5.88,5.88,0,0,1-2.83-.59,4.6,4.6,0,0,1-1.65-1.36,3.87,3.87,0,0,1-.59-1.12,7.82,7.82,0,0,1-.31-1.17,8.22,8.22,0,0,1-.11-1c0-.28,0-.45,0-.52v-.73h3.2v.61a8,8,0,0,0,.08,1,2.13,2.13,0,0,0,.44,1,1.6,1.6,0,0,0,.92.62,3.9,3.9,0,0,0,.84.12,2.62,2.62,0,0,0,1.37-.28,2.26,2.26,0,0,0,.64-.52,2.08,2.08,0,0,0,.43-1.08,7.78,7.78,0,0,0,.08-1.13v-.83a8.77,8.77,0,0,0-.09-1.22,2.47,2.47,0,0,0-.42-1.09,2,2,0,0,0-.8-.67l-.73-.32L684,432.2a7.89,7.89,0,0,1-1.66-.85A3.53,3.53,0,0,1,681,429.7a4.46,4.46,0,0,1-.42-1.6c0-.55-.06-1.11-.06-1.66v-.64a5.79,5.79,0,0,1,.48-2.45,5.58,5.58,0,0,1,1.18-1.71,4.45,4.45,0,0,1,1.78-1.07,7.09,7.09,0,0,1,2.09-.31,5.21,5.21,0,0,1,3.87,1.49,5.88,5.88,0,0,1,1.48,4.31v.73Z" style="fill:#b3b3b3"/><path d="M694.57,439.46h3.52V443l-3.52,3.2Z" style="fill:#b3b3b3"/><path d="M709.39,420.58h4.32c.34,0,.71,0,1.1,0a7.56,7.56,0,0,1,1.22.16,4.91,4.91,0,0,1,1.21.4,4.49,4.49,0,0,1,1.14.75,4.4,4.4,0,0,1,1,1.26,6,6,0,0,1,.51,1.36,7.81,7.81,0,0,1,.21,1.27c0,.39.05.7.05.94v9.89a11.67,11.67,0,0,1-.24,2.33,4.7,4.7,0,0,1-1.2,2.24,4.86,4.86,0,0,1-1.14.93,5.11,5.11,0,0,1-1.18.53,6.38,6.38,0,0,1-1.15.24,9.9,9.9,0,0,1-1,.06h-4.77Zm3.2,3.14v16.13H714a5.47,5.47,0,0,0,1.09-.13,2.1,2.1,0,0,0,1-.64,2.41,2.41,0,0,0,.63-1.31,10.14,10.14,0,0,0,.11-1.31v-9.92a5.67,5.67,0,0,0-.11-1,2.39,2.39,0,0,0-.5-1,1.62,1.62,0,0,0-1-.64,5.55,5.55,0,0,0-1.12-.1Z" style="fill:#b3b3b3"/><path d="M723.79,420.58H727V443h-3.2Z" style="fill:#b3b3b3"/><path d="M738.22,426.79v-.61a8.69,8.69,0,0,0-.08-1,2.17,2.17,0,0,0-.46-1.08,2.92,2.92,0,0,0-.61-.5,2.07,2.07,0,0,0-1.09-.24,3.24,3.24,0,0,0-.77.11,1.84,1.84,0,0,0-.8.5,2.19,2.19,0,0,0-.56,1.1,7.18,7.18,0,0,0-.11,1.17,8.34,8.34,0,0,0,.1,1.17,2.57,2.57,0,0,0,.41,1.17,1.65,1.65,0,0,0,.69.62l.78.37,2,.7a10.73,10.73,0,0,1,1.5.66,4.23,4.23,0,0,1,1.41,1.26,4.6,4.6,0,0,1,.8,1.86,13,13,0,0,1,.16,2v.77a9.44,9.44,0,0,1-.42,3,5.22,5.22,0,0,1-1.12,2,4.94,4.94,0,0,1-1.69,1.06,6.91,6.91,0,0,1-2.47.41,5.91,5.91,0,0,1-2.83-.59,4.6,4.6,0,0,1-1.65-1.36,4.13,4.13,0,0,1-.59-1.12,8.55,8.55,0,0,1-.42-2.14c0-.28,0-.45,0-.52v-.73h3.2v.61a6.35,6.35,0,0,0,.08,1,2.11,2.11,0,0,0,.43,1,1.66,1.66,0,0,0,.93.62,3.82,3.82,0,0,0,.83.12,2.64,2.64,0,0,0,1.38-.28,2.42,2.42,0,0,0,.64-.52,2.26,2.26,0,0,0,.43-1.08,9.51,9.51,0,0,0,.08-1.13v-.83a7.52,7.52,0,0,0-.1-1.22,2.46,2.46,0,0,0-.41-1.09,2.06,2.06,0,0,0-.8-.67c-.32-.15-.57-.25-.74-.32L734,432.2a8.14,8.14,0,0,1-1.66-.85A3.6,3.6,0,0,1,731,429.7a4.92,4.92,0,0,1-.42-1.6c0-.55-.06-1.11-.06-1.66v-.64a5.79,5.79,0,0,1,.48-2.45,5.58,5.58,0,0,1,1.18-1.71,4.52,4.52,0,0,1,1.78-1.07,7.11,7.11,0,0,1,2.1-.31,5.21,5.21,0,0,1,3.87,1.49,5.88,5.88,0,0,1,1.47,4.31v.73Z" style="fill:#b3b3b3"/><path d="M744.91,420.58h3.2v10.79l5.09-10.79h3.36L752,429.77,757.39,443H753.9l-3.81-10-2,3.45V443h-3.2Z" style="fill:#b3b3b3"/><path d="M758.6,420.58h3.2v17a3,3,0,0,0,.55,1.88,1.87,1.87,0,0,0,1.6.72,1.89,1.89,0,0,0,1.6-.72,3.06,3.06,0,0,0,.54-1.88v-17h3.2v16.51a8.09,8.09,0,0,1-.5,3.06,5,5,0,0,1-1.28,1.9,4.32,4.32,0,0,1-1.72,1,6.4,6.4,0,0,1-3.68,0,4.35,4.35,0,0,1-1.73-1,5.17,5.17,0,0,1-1.28-1.9,8.09,8.09,0,0,1-.5-3.06Z" style="fill:#b3b3b3"/><path d="M780.52,426.79v-.61a6.76,6.76,0,0,0-.08-1,2.09,2.09,0,0,0-.46-1.08,2.68,2.68,0,0,0-.61-.5,2,2,0,0,0-1.09-.24,3.1,3.1,0,0,0-.76.11,1.79,1.79,0,0,0-.8.5,2.11,2.11,0,0,0-.56,1.1,6.28,6.28,0,0,0-.12,1.17,10.2,10.2,0,0,0,.1,1.17,2.46,2.46,0,0,0,.42,1.17,1.69,1.69,0,0,0,.68.62l.79.37,2,.7a10.73,10.73,0,0,1,1.5.66,4.14,4.14,0,0,1,1.41,1.26,4.46,4.46,0,0,1,.8,1.86,11.86,11.86,0,0,1,.16,2v.77a9.44,9.44,0,0,1-.42,3,5.21,5.21,0,0,1-1.11,2,5,5,0,0,1-1.7,1.06,6.89,6.89,0,0,1-2.46.41,5.93,5.93,0,0,1-2.84-.59,4.64,4.64,0,0,1-1.64-1.36,3.9,3.9,0,0,1-.6-1.12,7.75,7.75,0,0,1-.3-1.17,8.22,8.22,0,0,1-.11-1c0-.28,0-.45,0-.52v-.73h3.2v.61a8,8,0,0,0,.08,1,2.21,2.21,0,0,0,.43,1,1.66,1.66,0,0,0,.93.62,3.82,3.82,0,0,0,.83.12,2.64,2.64,0,0,0,1.38-.28,2.26,2.26,0,0,0,.64-.52,2.17,2.17,0,0,0,.43-1.08,9.51,9.51,0,0,0,.08-1.13v-.83a8.77,8.77,0,0,0-.09-1.22,2.59,2.59,0,0,0-.42-1.09,2,2,0,0,0-.8-.67c-.32-.15-.57-.25-.74-.32l-2.33-.83a8.22,8.22,0,0,1-1.67-.85,3.6,3.6,0,0,1-1.28-1.65,4.67,4.67,0,0,1-.41-1.6c0-.55-.07-1.11-.07-1.66v-.64a5.79,5.79,0,0,1,.48-2.45,5.6,5.6,0,0,1,1.19-1.71,4.42,4.42,0,0,1,1.77-1.07,7.11,7.11,0,0,1,2.1-.31,5.21,5.21,0,0,1,3.87,1.49,5.88,5.88,0,0,1,1.47,4.31v.73Z" style="fill:#b3b3b3"/><path d="M794.6,426.79v-.61a6.76,6.76,0,0,0-.08-1,2.17,2.17,0,0,0-.46-1.08,2.68,2.68,0,0,0-.61-.5,2.07,2.07,0,0,0-1.09-.24,3.24,3.24,0,0,0-.77.11,1.9,1.9,0,0,0-.8.5,2.27,2.27,0,0,0-.56,1.1,7.18,7.18,0,0,0-.11,1.17,8.34,8.34,0,0,0,.1,1.17,2.57,2.57,0,0,0,.41,1.17,1.72,1.72,0,0,0,.69.62l.79.37,1.95.7a10.73,10.73,0,0,1,1.5.66,4.23,4.23,0,0,1,1.41,1.26,4.46,4.46,0,0,1,.8,1.86,11.86,11.86,0,0,1,.16,2v.77a9.44,9.44,0,0,1-.42,3,5.09,5.09,0,0,1-1.12,2,4.84,4.84,0,0,1-1.69,1.06,6.91,6.91,0,0,1-2.47.41,5.91,5.91,0,0,1-2.83-.59,4.78,4.78,0,0,1-1.65-1.36,4.13,4.13,0,0,1-.59-1.12,6.71,6.71,0,0,1-.3-1.17,6.54,6.54,0,0,1-.11-1c0-.28,0-.45,0-.52v-.73h3.2v.61a8,8,0,0,0,.08,1,2.11,2.11,0,0,0,.43,1,1.66,1.66,0,0,0,.93.62,3.82,3.82,0,0,0,.83.12,2.64,2.64,0,0,0,1.38-.28,2.26,2.26,0,0,0,.64-.52,2.17,2.17,0,0,0,.43-1.08,9.51,9.51,0,0,0,.08-1.13v-.83a7.52,7.52,0,0,0-.1-1.22,2.46,2.46,0,0,0-.41-1.09,2.06,2.06,0,0,0-.8-.67c-.32-.15-.57-.25-.74-.32l-2.33-.83a8.22,8.22,0,0,1-1.67-.85,3.6,3.6,0,0,1-1.28-1.65,4.67,4.67,0,0,1-.41-1.6c0-.55-.07-1.11-.07-1.66v-.64a5.79,5.79,0,0,1,.48-2.45,5.6,5.6,0,0,1,1.19-1.71,4.42,4.42,0,0,1,1.77-1.07,7.11,7.11,0,0,1,2.1-.31,5.21,5.21,0,0,1,3.87,1.49,5.88,5.88,0,0,1,1.47,4.31v.73Z" style="fill:#b3b3b3"/><path d="M801.29,420.58h3.2V443h-3.2Z" style="fill:#b3b3b3"/><path d="M808.2,437.09V426.47a11.92,11.92,0,0,1,.26-2.48,4.48,4.48,0,0,1,1.41-2.29,5.51,5.51,0,0,1,1.71-1.05,5.94,5.94,0,0,1,2.22-.39,6,6,0,0,1,2.23.39,5.51,5.51,0,0,1,1.71,1.05,4.62,4.62,0,0,1,1.41,2.29,11.92,11.92,0,0,1,.25,2.48v10.62a11.85,11.85,0,0,1-.25,2.48,4.58,4.58,0,0,1-1.41,2.29,5.53,5.53,0,0,1-1.71,1.06,6.24,6.24,0,0,1-2.23.38,6.15,6.15,0,0,1-2.22-.38,5.53,5.53,0,0,1-1.71-1.06,4.44,4.44,0,0,1-1.41-2.29A11.85,11.85,0,0,1,808.2,437.09Zm8,.48V426a4.88,4.88,0,0,0-.11-1,2,2,0,0,0-.56-.94,2.29,2.29,0,0,0-.69-.45,2.51,2.51,0,0,0-1-.19,2.54,2.54,0,0,0-1,.19,2.29,2.29,0,0,0-.69.45,2.07,2.07,0,0,0-.56.94,4.88,4.88,0,0,0-.11,1v11.58a4.81,4.81,0,0,0,.11,1,2.06,2.06,0,0,0,1.25,1.39,2.54,2.54,0,0,0,1,.2,2.5,2.5,0,0,0,1-.2,2.1,2.1,0,0,0,.69-.44,2,2,0,0,0,.56-.95A4.81,4.81,0,0,0,816.2,437.57Z" style="fill:#b3b3b3"/><path d="M823.11,420.58h3.2l5.35,14.08V420.58h3.2V443h-3.2l-5.35-14.08V443h-3.2Z" style="fill:#b3b3b3"/><path d="M848.2,420.58v3h-6.3v6.6h5.57v2.88H841.9v6.84h6.4v3h-9.6v-22.4Z" style="fill:#b3b3b3"/><path d="M851.34,420.58h3.2l5.34,14.08V420.58h3.2V443h-3.2l-5.34-14.08V443h-3.2Z" style="fill:#b3b3b3"/><line x1="456.37" y1="596.93" x2="404.4" y2="506.9" style="fill:none;stroke:#fff;stroke-miterlimit:10;stroke-width:18px"/></svg>